{"title":"Dracula Untold (2014) BRRIP 720P NO CINAVIA","uid":11753980,"size":788094068,"categoryP":"video","categoryS":"hd___movies","magnet":"?xt=urn:btih:0df1f0b089c43e7cd880437118cea329a8f539d8&amp;dn=Dracula+Untold+%282014%29+BRRIP+720P+NO+CINAVIA&amp;tr=udp%3A%2F%2Ftracker.openbittorrent.com%3A80&amp;tr=udp%3A%2F%2Fopen.demonii.com%3A1337&amp;tr=udp%3A%2F%2Ftracker.coppersurfer.tk%3A6969&amp;tr=udp%3A%2F%2Fexodus.desync.com%3A6969","seeders":3,"leechers":1,"uploader":"jmanwf","files":4,"time":1426306304,"description":"Storyline\n\nAt the turn of the century, the young lord Vlad and his family live a peaceful life ruling over their small kingdom, but when a Turk warlord demands from Vlad a thousand boys and his son to create an army Vlad seeks a terrible power that will allow him to protect his kingdom and family from the Turks at a terrible cost.\n\n\n\nVideo\nID : 1\nFormat : AVC\nFormat/Info : Advanced Video Codec\nFormat profile : &lt;a class=&quot;__cf_email__&quot; href=&quot;/cdn-cgi/l/email-protection&quot; data-cfemail=&quot;8ac2e3ede2cac6bea4bb&quot;&gt;[email&amp;#160;protected]&lt;/a&gt;&lt;script cf-hash='f9e31' type=&quot;text/javascript&quot;&gt;\n/* &lt;![CDATA[ */!function(){try{var t=&quot;currentScript&quot;in document?document.currentScript:function(){for(var t=document.getElementsByTagName(&quot;script&quot;),e=t.length;e--;)if(t[e].getAttribute(&quot;cf-hash&quot;))return t[e]}();if(t&amp;&amp;t.previousSibling){var e,r,n,i,c=t.previousSibling,a=c.getAttribute(&quot;data-cfemail&quot;);if(a){for(e=&quot;&quot;,r=parseInt(a.substr(0,2),16),n=2;a.length-n;n+=2)i=parseInt(a.substr(n,2),16)^r,e+=String.fromCharCode(i);e=document.createTextNode(e),c.parentNode.replaceChild(e,c)}}}catch(u){}}();/* ]]&gt; */&lt;/script&gt;\nFormat settings, CABAC : Yes\nFormat settings, ReFrames : 4 frames\nCodec ID : avc1\nCodec ID/Info : Advanced Video Coding\nDuration : 1h 32mn\nBit rate : 1 039 Kbps\nWidth : 1 280 pixels\nHeight : 536 pixels\nDisplay aspect ratio : 2.40:1\nFrame rate mode : Variable\nFrame rate : 23.976 fps\nMinimum frame rate : 23.976 fps\nMaximum frame rate : 24.024 fps\nColor space : YUV\nChroma subsampling : 4:2:0\nBit depth : 8 bits\nScan type : Progressive\nBits/(Pixel*Frame) : 0.063\nStream size : 685 MiB (91%)\nWriting library : x264 core 142 r2479 dd79a61\n\nColor primaries : BT.709\nMatrix coefficients : BT.709\nColor range : Limited\n\nAudio\nID : 2\nFormat : AAC\nFormat/Info : Advanced Audio Codec\nFormat profile : LC\nCodec ID : 40\nDuration : 1h 32mn\nBit rate mode : Variable\nBit rate : 93.4 Kbps\nMaximum bit rate : 375 Kbps\nChannel(s) : 2 channels\nChannel positions : Front: L R\nSampling rate : 48.0 KHz\nCompression mode : Lossy\nStream size : 61.6 MiB (8%)\n &lt;a href=&quot;\nhttp://www.imdb.com/title/tt0829150/&quot; rel=&quot;nofollow&quot; target=&quot;_NEW&quot;&gt;\nhttp://www.imdb.com/title/tt0829150/&lt;/a&gt;\n &lt;a href=&quot;\nhttp://s27.postimg.org/itwuu3eib/image.jpg&quot; rel=&quot;nofollow&quot; target=&quot;_NEW&quot;&gt;\nhttp://s27.postimg.org/itwuu3eib/image.jpg&lt;/a&gt;","torrent":{"xt":"urn:btih:0df1f0b089c43e7cd880437118cea329a8f539d8","amp;dn":"Dracula+Untold+%282014%29+BRRIP+720P+NO+CINAVIA","amp;tr":["udp%3A%2F%2Ftracker.openbittorrent.com%3A80","udp%3A%2F%2Fopen.demonii.com%3A1337","udp%3A%2F%2Ftracker.coppersurfer.tk%3A6969","udp%3A%2F%2Fexodus.desync.com%3A6969"],"infoHash":"0df1f0b089c43e7cd880437118cea329a8f539d8","infoHashBuffer":{"type":"Buffer","data":[13,241,240,176,137,196,62,124,216,128,67,113,24,206,163,41,168,245,57,216]},"announce":[],"urlList":[]}}